STARTFONT 2.1
FONT -Misc-Fixed-Medium-R-Normal--13-120-75-75-C-80-ISO10646-1
SIZE 12 75 75
FONTBOUNDINGBOX 8 13 0 -2

STARTPROPERTIES 24
FONTNAME_REGISTRY ""
FOUNDRY "Misc"
FAMILY_NAME "Fixed"
WEIGHT_NAME "Medium"
SLANT "R"
SETWIDTH_NAME "Normal"
ADD_STYLE_NAME ""
PIXEL_SIZE 13
POINT_SIZE 120
RESOLUTION_X 75
RESOLUTION_Y 75
SPACING "C"
AVERAGE_WIDTH 80
CHARSET_REGISTRY "ISO10646"
CHARSET_ENCODING "1"
COPYRIGHT "Public domain font.  Share and enjoy."
_XMBDFED_INFO "Edited with xmbdfed 4.5."
CAP_HEIGHT 9
X_HEIGHT 6
WEIGHT 10
QUAD_WIDTH 8
DEFAULT_CHAR 0
FONT_DESCENT 2
FONT_ASCENT 11
ENDPROPERTIES


CHARS 95
STARTCHAR space
ENCODING 32
SWIDTH 568 0
DWIDTH 8 0
BBX 8 13 0 -2
BITMAP
00
00
00
00
00
00
00
00
00
00
00
00
00
ENDCHAR
STARTCHAR exclam
ENCODING 33
SWIDTH 568 0
DWIDTH 8 0
BBX 8 13 0 -2
BITMAP
00
00
10
10
10
10
10
10
10
00
10
00
00
ENDCHAR
STARTCHAR quotedbl
ENCODING 34
SWIDTH 568 0
DWIDTH 8 0
BBX 8 13 0 -2
BITMAP
00
00
24
24
24
00
00
00
00
00
00
00
00
ENDCHAR
STARTCHAR numbersign
ENCODING 35
SWIDTH 568 0
DWIDTH 8 0
BBX 8 13 0 -2
BITMAP
00
00
00
24
24
7E
24
7E
24
24
00
00
00
ENDCHAR
STARTCHAR dollar
ENCODING 36
SWIDTH 568 0
DWIDTH 8 0
BBX 8 13 0 -2
BITMAP
00
00
10
3C
50
50
38
14
14
78
10
00
00
ENDCHAR
STARTCHAR percent
ENCODING 37
SWIDTH 568 0
DWIDTH 8 0
BBX 8 13 0 -2
BITMAP
00
00
22
52
24
08
08
10
24
2A
44
00
00
ENDCHAR
STARTCHAR ampersand
ENCODING 38
SWIDTH 568 0
DWIDTH 8 0
BBX 8 13 0 -2
BITMAP
00
00
00
00
30
48
48
30
4A
44
3A
00
00
ENDCHAR
STARTCHAR quotesingle
ENCODING 39
SWIDTH 568 0
DWIDTH 8 0
BBX 8 13 0 -2
BITMAP
00
00
10
10
10
00
00
00
00
00
00
00
00
ENDCHAR
STARTCHAR parenleft
ENCODING 40
SWIDTH 568 0
DWIDTH 8 0
BBX 8 13 0 -2
BITMAP
00
00
04
08
08
10
10
10
08
08
04
00
00
ENDCHAR
STARTCHAR parenright
ENCODING 41
SWIDTH 568 0
DWIDTH 8 0
BBX 8 13 0 -2
BITMAP
00
00
20
10
10
08
08
08
10
10
20
00
00
ENDCHAR
STARTCHAR asterisk
ENCODING 42
SWIDTH 568 0
DWIDTH 8 0
BBX 8 13 0 -2
BITMAP
00
00
24
18
7E
18
24
00
00
00
00
00
00
ENDCHAR
STARTCHAR plus
ENCODING 43
SWIDTH 568 0
DWIDTH 8 0
BBX 8 13 0 -2
BITMAP
00
00
00
00
10
10
7C
10
10
00
00
00
00
ENDCHAR
STARTCHAR comma
ENCODING 44
SWIDTH 568 0
DWIDTH 8 0
BBX 8 13 0 -2
BITMAP
00
00
00
00
00
00
00
00
00
38
30
40
00
ENDCHAR
STARTCHAR hyphen
ENCODING 45
SWIDTH 568 0
DWIDTH 8 0
BBX 8 13 0 -2
BITMAP
00
00
00
00
00
00
7C
00
00
00
00
00
00
ENDCHAR
STARTCHAR period
ENCODING 46
SWIDTH 568 0
DWIDTH 8 0
BBX 8 13 0 -2
BITMAP
00
00
00
00
00
00
00
00
00
10
38
10
00
ENDCHAR
STARTCHAR slash
ENCODING 47
SWIDTH 568 0
DWIDTH 8 0
BBX 8 13 0 -2
BITMAP
00
00
02
02
04
08
10
20
40
80
80
00
00
ENDCHAR
STARTCHAR zero
ENCODING 48
SWIDTH 568 0
DWIDTH 8 0
BBX 8 13 0 -2
BITMAP
00
00
18
24
42
42
42
42
42
24
18
00
00
ENDCHAR
STARTCHAR one
ENCODING 49
SWIDTH 568 0
DWIDTH 8 0
BBX 8 13 0 -2
BITMAP
00
00
10
30
50
10
10
10
10
10
7C
00
00
ENDCHAR
STARTCHAR two
ENCODING 50
SWIDTH 568 0
DWIDTH 8 0
BBX 8 13 0 -2
BITMAP
00
00
3C
42
42
02
04
18
20
40
7E
00
00
ENDCHAR
STARTCHAR three
ENCODING 51
SWIDTH 568 0
DWIDTH 8 0
BBX 8 13 0 -2
BITMAP
00
00
7E
02
04
08
1C
02
02
42
3C
00
00
ENDCHAR
STARTCHAR four
ENCODING 52
SWIDTH 568 0
DWIDTH 8 0
BBX 8 13 0 -2
BITMAP
00
00
04
0C
14
24
44
44
7E
04
04
00
00
ENDCHAR
STARTCHAR five
ENCODING 53
SWIDTH 568 0
DWIDTH 8 0
BBX 8 13 0 -2
BITMAP
00
00
7E
40
40
5C
62
02
02
42
3C
00
00
ENDCHAR
STARTCHAR six
ENCODING 54
SWIDTH 568 0
DWIDTH 8 0
BBX 8 13 0 -2
BITMAP
00
00
1C
20
40
40
5C
62
42
42
3C
00
00
ENDCHAR
STARTCHAR seven
ENCODING 55
SWIDTH 568 0
DWIDTH 8 0
BBX 8 13 0 -2
BITMAP
00
00
7E
02
04
08
08
10
10
20
20
00
00
ENDCHAR
STARTCHAR eight
ENCODING 56
SWIDTH 568 0
DWIDTH 8 0
BBX 8 13 0 -2
BITMAP
00
00
3C
42
42
42
3C
42
42
42
3C
00
00
ENDCHAR
STARTCHAR nine
ENCODING 57
SWIDTH 568 0
DWIDTH 8 0
BBX 8 13 0 -2
BITMAP
00
00
3C
42
42
46
3A
02
02
04
38
00
00
ENDCHAR
STARTCHAR colon
ENCODING 58
SWIDTH 568 0
DWIDTH 8 0
BBX 8 13 0 -2
BITMAP
00
00
00
00
10
38
10
00
00
10
38
10
00
ENDCHAR
STARTCHAR semicolon
ENCODING 59
SWIDTH 568 0
DWIDTH 8 0
BBX 8 13 0 -2
BITMAP
00
00
00
00
10
38
10
00
00
38
30
40
00
ENDCHAR
STARTCHAR less
ENCODING 60
SWIDTH 568 0
DWIDTH 8 0
BBX 8 13 0 -2
BITMAP
00
00
02
04
08
10
20
10
08
04
02
00
00
ENDCHAR
STARTCHAR equal
ENCODING 61
SWIDTH 568 0
DWIDTH 8 0
BBX 8 13 0 -2
BITMAP
00
00
00
00
00
7E
00
00
7E
00
00
00
00
ENDCHAR
STARTCHAR greater
ENCODING 62
SWIDTH 568 0
DWIDTH 8 0
BBX 8 13 0 -2
BITMAP
00
00
40
20
10
08
04
08
10
20
40
00
00
ENDCHAR
STARTCHAR question
ENCODING 63
SWIDTH 568 0
DWIDTH 8 0
BBX 8 13 0 -2
BITMAP
00
00
3C
42
42
02
04
08
08
00
08
00
00
ENDCHAR
STARTCHAR at
ENCODING 64
SWIDTH 568 0
DWIDTH 8 0
BBX 8 13 0 -2
BITMAP
00
00
3C
42
42
4E
52
56
4A
40
3C
00
00
ENDCHAR
STARTCHAR A
ENCODING 65
SWIDTH 568 0
DWIDTH 8 0
BBX 8 13 0 -2
BITMAP
00
00
18
24
42
42
42
7E
42
42
42
00
00
ENDCHAR
STARTCHAR B
ENCODING 66
SWIDTH 568 0
DWIDTH 8 0
BBX 8 13 0 -2
BITMAP
00
00
78
44
42
44
78
44
42
44
78
00
00
ENDCHAR
STARTCHAR C
ENCODING 67
SWIDTH 568 0
DWIDTH 8 0
BBX 8 13 0 -2
BITMAP
00
00
3C
42
40
40
40
40
40
42
3C
00
00
ENDCHAR
STARTCHAR D
ENCODING 68
SWIDTH 568 0
DWIDTH 8 0
BBX 8 13 0 -2
BITMAP
00
00
78
44
42
42
42
42
42
44
78
00
00
ENDCHAR
STARTCHAR E
ENCODING 69
SWIDTH 568 0
DWIDTH 8 0
BBX 8 13 0 -2
BITMAP
00
00
7E
40
40
40
78
40
40
40
7E
00
00
ENDCHAR
STARTCHAR F
ENCODING 70
SWIDTH 568 0
DWIDTH 8 0
BBX 8 13 0 -2
BITMAP
00
00
7E
40
40
40
78
40
40
40
40
00
00
ENDCHAR
STARTCHAR G
ENCODING 71
SWIDTH 568 0
DWIDTH 8 0
BBX 8 13 0 -2
BITMAP
00
00
3C
42
40
40
40
4E
42
46
3A
00
00
ENDCHAR
STARTCHAR H
ENCODING 72
SWIDTH 568 0
DWIDTH 8 0
BBX 8 13 0 -2
BITMAP
00
00
42
42
42
42
7E
42
42
42
42
00
00
ENDCHAR
STARTCHAR I
ENCODING 73
SWIDTH 568 0
DWIDTH 8 0
BBX 8 13 0 -2
BITMAP
00
00
7C
10
10
10
10
10
10
10
7C
00
00
ENDCHAR
STARTCHAR J
ENCODING 74
SWIDTH 568 0
DWIDTH 8 0
BBX 8 13 0 -2
BITMAP
00
00
1F
04
04
04
04
04
04
44
38
00
00
ENDCHAR
STARTCHAR K
ENCODING 75
SWIDTH 568 0
DWIDTH 8 0
BBX 8 13 0 -2
BITMAP
00
00
42
44
48
50
60
50
48
44
42
00
00
ENDCHAR
STARTCHAR L
ENCODING 76
SWIDTH 568 0
DWIDTH 8 0
BBX 8 13 0 -2
BITMAP
00
00
40
40
40
40
40
40
40
40
7E
00
00
ENDCHAR
STARTCHAR M
ENCODING 77
SWIDTH 568 0
DWIDTH 8 0
BBX 8 13 0 -2
BITMAP
00
00
82
82
C6
AA
92
92
82
82
82
00
00
ENDCHAR
STARTCHAR N
ENCODING 78
SWIDTH 568 0
DWIDTH 8 0
BBX 8 13 0 -2
BITMAP
00
00
42
42
62
52
4A
46
42
42
42
00
00
ENDCHAR
STARTCHAR O
ENCODING 79
SWIDTH 568 0
DWIDTH 8 0
BBX 8 13 0 -2
BITMAP
00
00
3C
42
42
42
42
42
42
42
3C
00
00
ENDCHAR
STARTCHAR P
ENCODING 80
SWIDTH 568 0
DWIDTH 8 0
BBX 8 13 0 -2
BITMAP
00
00
7C
42
42
42
7C
40
40
40
40
00
00
ENDCHAR
STARTCHAR Q
ENCODING 81
SWIDTH 568 0
DWIDTH 8 0
BBX 8 13 0 -2
BITMAP
00
00
3C
42
42
42
42
42
52
4A
3C
02
00
ENDCHAR
STARTCHAR R
ENCODING 82
SWIDTH 568 0
DWIDTH 8 0
BBX 8 13 0 -2
BITMAP
00
00
7C
42
42
42
7C
50
48
44
42
00
00
ENDCHAR
STARTCHAR S
ENCODING 83
SWIDTH 568 0
DWIDTH 8 0
BBX 8 13 0 -2
BITMAP
00
00
3C
42
40
40
3C
02
02
42
3C
00
00
ENDCHAR
STARTCHAR T
ENCODING 84
SWIDTH 568 0
DWIDTH 8 0
BBX 8 13 0 -2
BITMAP
00
00
FE
10
10
10
10
10
10
10
10
00
00
ENDCHAR
STARTCHAR U
ENCODING 85
SWIDTH 568 0
DWIDTH 8 0
BBX 8 13 0 -2
BITMAP
00
00
42
42
42
42
42
42
42
42
3C
00
00
ENDCHAR
STARTCHAR V
ENCODING 86
SWIDTH 568 0
DWIDTH 8 0
BBX 8 13 0 -2
BITMAP
00
00
82
82
44
44
44
28
28
28
10
00
00
ENDCHAR
STARTCHAR W
ENCODING 87
SWIDTH 568 0
DWIDTH 8 0
BBX 8 13 0 -2
BITMAP
00
00
82
82
82
82
92
92
92
AA
44
00
00
ENDCHAR
STARTCHAR X
ENCODING 88
SWIDTH 568 0
DWIDTH 8 0
BBX 8 13 0 -2
BITMAP
00
00
82
82
44
28
10
28
44
82
82
00
00
ENDCHAR
STARTCHAR Y
ENCODING 89
SWIDTH 568 0
DWIDTH 8 0
BBX 8 13 0 -2
BITMAP
00
00
82
82
44
28
10
10
10
10
10
00
00
ENDCHAR
STARTCHAR Z
ENCODING 90
SWIDTH 568 0
DWIDTH 8 0
BBX 8 13 0 -2
BITMAP
00
00
7E
02
04
08
10
20
40
40
7E
00
00
ENDCHAR
STARTCHAR bracketleft
ENCODING 91
SWIDTH 568 0
DWIDTH 8 0
BBX 8 13 0 -2
BITMAP
00
00
3C
20
20
20
20
20
20
20
3C
00
00
ENDCHAR
STARTCHAR backslash
ENCODING 92
SWIDTH 568 0
DWIDTH 8 0
BBX 8 13 0 -2
BITMAP
00
00
80
80
40
20
10
08
04
02
02
00
00
ENDCHAR
STARTCHAR bracketright
ENCODING 93
SWIDTH 568 0
DWIDTH 8 0
BBX 8 13 0 -2
BITMAP
00
00
78
08
08
08
08
08
08
08
78
00
00
ENDCHAR
STARTCHAR asciicircum
ENCODING 94
SWIDTH 568 0
DWIDTH 8 0
BBX 8 13 0 -2
BITMAP
00
00
10
28
44
00
00
00
00
00
00
00
00
ENDCHAR
STARTCHAR underscore
ENCODING 95
SWIDTH 568 0
DWIDTH 8 0
BBX 8 13 0 -2
BITMAP
00
00
00
00
00
00
00
00
00
00
00
FE
00
ENDCHAR
STARTCHAR grave
ENCODING 96
SWIDTH 568 0
DWIDTH 8 0
BBX 8 13 0 -2
BITMAP
00
10
08
00
00
00
00
00
00
00
00
00
00
ENDCHAR
STARTCHAR a
ENCODING 97
SWIDTH 568 0
DWIDTH 8 0
BBX 8 13 0 -2
BITMAP
00
00
00
00
00
3C
02
3E
42
46
3A
00
00
ENDCHAR
STARTCHAR b
ENCODING 98
SWIDTH 568 0
DWIDTH 8 0
BBX 8 13 0 -2
BITMAP
00
00
40
40
40
5C
62
42
42
62
5C
00
00
ENDCHAR
STARTCHAR c
ENCODING 99
SWIDTH 568 0
DWIDTH 8 0
BBX 8 13 0 -2
BITMAP
00
00
00
00
00
3C
42
40
40
42
3C
00
00
ENDCHAR
STARTCHAR d
ENCODING 100
SWIDTH 568 0
DWIDTH 8 0
BBX 8 13 0 -2
BITMAP
00
00
02
02
02
3A
46
42
42
46
3A
00
00
ENDCHAR
STARTCHAR e
ENCODING 101
SWIDTH 568 0
DWIDTH 8 0
BBX 8 13 0 -2
BITMAP
00
00
00
00
00
3C
42
7E
40
42
3C
00
00
ENDCHAR
STARTCHAR f
ENCODING 102
SWIDTH 568 0
DWIDTH 8 0
BBX 8 13 0 -2
BITMAP
00
00
1C
22
20
20
7C
20
20
20
20
00
00
ENDCHAR
STARTCHAR g
ENCODING 103
SWIDTH 568 0
DWIDTH 8 0
BBX 8 13 0 -2
BITMAP
00
00
00
00
00
3A
44
44
38
40
3C
42
3C
ENDCHAR
STARTCHAR h
ENCODING 104
SWIDTH 568 0
DWIDTH 8 0
BBX 8 13 0 -2
BITMAP
00
00
40
40
40
5C
62
42
42
42
42
00
00
ENDCHAR
STARTCHAR i
ENCODING 105
SWIDTH 568 0
DWIDTH 8 0
BBX 8 13 0 -2
BITMAP
00
00
00
10
00
30
10
10
10
10
7C
00
00
ENDCHAR
STARTCHAR j
ENCODING 106
SWIDTH 568 0
DWIDTH 8 0
BBX 8 13 0 -2
BITMAP
00
00
00
04
00
0C
04
04
04
04
44
44
38
ENDCHAR
STARTCHAR k
ENCODING 107
SWIDTH 568 0
DWIDTH 8 0
BBX 8 13 0 -2
BITMAP
00
00
40
40
40
44
48
70
48
44
42
00
00
ENDCHAR
STARTCHAR l
ENCODING 108
SWIDTH 568 0
DWIDTH 8 0
BBX 8 13 0 -2
BITMAP
00
00
30
10
10
10
10
10
10
10
7C
00
00
ENDCHAR
STARTCHAR m
ENCODING 109
SWIDTH 568 0
DWIDTH 8 0
BBX 8 13 0 -2
BITMAP
00
00
00
00
00
EC
92
92
92
92
82
00
00
ENDCHAR
STARTCHAR n
ENCODING 110
SWIDTH 568 0
DWIDTH 8 0
BBX 8 13 0 -2
BITMAP
00
00
00
00
00
5C
62
42
42
42
42
00
00
ENDCHAR
STARTCHAR o
ENCODING 111
SWIDTH 568 0
DWIDTH 8 0
BBX 8 13 0 -2
BITMAP
00
00
00
00
00
3C
42
42
42
42
3C
00
00
ENDCHAR
STARTCHAR p
ENCODING 112
SWIDTH 568 0
DWIDTH 8 0
BBX 8 13 0 -2
BITMAP
00
00
00
00
00
5C
62
42
62
5C
40
40
40
ENDCHAR
STARTCHAR q
ENCODING 113
SWIDTH 568 0
DWIDTH 8 0
BBX 8 13 0 -2
BITMAP
00
00
00
00
00
3A
46
42
46
3A
02
02
02
ENDCHAR
STARTCHAR r
ENCODING 114
SWIDTH 568 0
DWIDTH 8 0
BBX 8 13 0 -2
BITMAP
00
00
00
00
00
5C
22
20
20
20
20
00
00
ENDCHAR
STARTCHAR s
ENCODING 115
SWIDTH 568 0
DWIDTH 8 0
BBX 8 13 0 -2
BITMAP
00
00
00
00
00
3C
42
30
0C
42
3C
00
00
ENDCHAR
STARTCHAR t
ENCODING 116
SWIDTH 568 0
DWIDTH 8 0
BBX 8 13 0 -2
BITMAP
00
00
00
20
20
7C
20
20
20
22
1C
00
00
ENDCHAR
STARTCHAR u
ENCODING 117
SWIDTH 568 0
DWIDTH 8 0
BBX 8 13 0 -2
BITMAP
00
00
00
00
00
44
44
44
44
44
3A
00
00
ENDCHAR
STARTCHAR v
ENCODING 118
SWIDTH 568 0
DWIDTH 8 0
BBX 8 13 0 -2
BITMAP
00
00
00
00
00
44
44
44
28
28
10
00
00
ENDCHAR
STARTCHAR w
ENCODING 119
SWIDTH 568 0
DWIDTH 8 0
BBX 8 13 0 -2
BITMAP
00
00
00
00
00
82
82
92
92
AA
44
00
00
ENDCHAR
STARTCHAR x
ENCODING 120
SWIDTH 568 0
DWIDTH 8 0
BBX 8 13 0 -2
BITMAP
00
00
00
00
00
42
24
18
18
24
42
00
00
ENDCHAR
STARTCHAR y
ENCODING 121
SWIDTH 568 0
DWIDTH 8 0
BBX 8 13 0 -2
BITMAP
00
00
00
00
00
42
42
42
46
3A
02
42
3C
ENDCHAR
STARTCHAR z
ENCODING 122
SWIDTH 568 0
DWIDTH 8 0
BBX 8 13 0 -2
BITMAP
00
00
00
00
00
7E
04
08
10
20
7E
00
00
ENDCHAR
STARTCHAR braceleft
ENCODING 123
SWIDTH 568 0
DWIDTH 8 0
BBX 8 13 0 -2
BITMAP
00
00
0E
10
10
08
30
08
10
10
0E
00
00
ENDCHAR
STARTCHAR bar
ENCODING 124
SWIDTH 568 0
DWIDTH 8 0
BBX 8 13 0 -2
BITMAP
00
00
10
10
10
10
10
10
10
10
10
00
00
ENDCHAR
STARTCHAR braceright
ENCODING 125
SWIDTH 568 0
DWIDTH 8 0
BBX 8 13 0 -2
BITMAP
00
00
70
08
08
10
0C
10
08
08
70
00
00
ENDCHAR
STARTCHAR asciitilde
ENCODING 126
SWIDTH 568 0
DWIDTH 8 0
BBX 8 13 0 -2
BITMAP
00
00
24
54
48
00
00
00
00
00
00
00
00
ENDCHAR
ENDFONT
