STARTFONT 2.1
FONT -Misc-Fixed-Medium-R-Normal--13-120-75-75-C-80-ISO10646-1
SIZE 12 75 75
FONTBOUNDINGBOX 8 13 0 -2

STARTPROPERTIES 24
FONTNAME_REGISTRY ""
FOUNDRY "Misc"
FAMILY_NAME "Fixed"
WEIGHT_NAME "Medium"
SLANT "R"
SETWIDTH_NAME "Normal"
ADD_STYLE_NAME ""
PIXEL_SIZE 13
POINT_SIZE 120
RESOLUTION_X 75
RESOLUTION_Y 75
SPACING "C"
AVERAGE_WIDTH 80
CHARSET_REGISTRY "ISO10646"
CHARSET_ENCODING "1"
COPYRIGHT "Public domain font.  Share and enjoy."
_XMBDFED_INFO "Edited with xmbdfed 4.5."
CAP_HEIGHT 9
X_HEIGHT 6
WEIGHT 10
QUAD_WIDTH 8
DEFAULT_CHAR 0
FONT_DESCENT 2
FONT_ASCENT 11
ENDPROPERTIES


CHARS 319
STARTCHAR space
ENCODING 32
SWIDTH 568 0
DWIDTH 8 0
BBX 8 13 0 -2
BITMAP
00
00
00
00
00
00
00
00
00
00
00
00
00
ENDCHAR
STARTCHAR exclam
ENCODING 33
SWIDTH 568 0
DWIDTH 8 0
BBX 8 13 0 -2
BITMAP
00
00
10
10
10
10
10
10
10
00
10
00
00
ENDCHAR
STARTCHAR quotedbl
ENCODING 34
SWIDTH 568 0
DWIDTH 8 0
BBX 8 13 0 -2
BITMAP
00
00
24
24
24
00
00
00
00
00
00
00
00
ENDCHAR
STARTCHAR numbersign
ENCODING 35
SWIDTH 568 0
DWIDTH 8 0
BBX 8 13 0 -2
BITMAP
00
00
00
24
24
7E
24
7E
24
24
00
00
00
ENDCHAR
STARTCHAR dollar
ENCODING 36
SWIDTH 568 0
DWIDTH 8 0
BBX 8 13 0 -2
BITMAP
00
00
10
3C
50
50
38
14
14
78
10
00
00
ENDCHAR
STARTCHAR percent
ENCODING 37
SWIDTH 568 0
DWIDTH 8 0
BBX 8 13 0 -2
BITMAP
00
00
22
52
24
08
08
10
24
2A
44
00
00
ENDCHAR
STARTCHAR ampersand
ENCODING 38
SWIDTH 568 0
DWIDTH 8 0
BBX 8 13 0 -2
BITMAP
00
00
00
00
30
48
48
30
4A
44
3A
00
00
ENDCHAR
STARTCHAR quotesingle
ENCODING 39
SWIDTH 568 0
DWIDTH 8 0
BBX 8 13 0 -2
BITMAP
00
00
10
10
10
00
00
00
00
00
00
00
00
ENDCHAR
STARTCHAR parenleft
ENCODING 40
SWIDTH 568 0
DWIDTH 8 0
BBX 8 13 0 -2
BITMAP
00
00
04
08
08
10
10
10
08
08
04
00
00
ENDCHAR
STARTCHAR parenright
ENCODING 41
SWIDTH 568 0
DWIDTH 8 0
BBX 8 13 0 -2
BITMAP
00
00
20
10
10
08
08
08
10
10
20
00
00
ENDCHAR
STARTCHAR asterisk
ENCODING 42
SWIDTH 568 0
DWIDTH 8 0
BBX 8 13 0 -2
BITMAP
00
00
24
18
7E
18
24
00
00
00
00
00
00
ENDCHAR
STARTCHAR plus
ENCODING 43
SWIDTH 568 0
DWIDTH 8 0
BBX 8 13 0 -2
BITMAP
00
00
00
00
10
10
7C
10
10
00
00
00
00
ENDCHAR
STARTCHAR comma
ENCODING 44
SWIDTH 568 0
DWIDTH 8 0
BBX 8 13 0 -2
BITMAP
00
00
00
00
00
00
00
00
00
38
30
40
00
ENDCHAR
STARTCHAR hyphen
ENCODING 45
SWIDTH 568 0
DWIDTH 8 0
BBX 8 13 0 -2
BITMAP
00
00
00
00
00
00
7C
00
00
00
00
00
00
ENDCHAR
STARTCHAR period
ENCODING 46
SWIDTH 568 0
DWIDTH 8 0
BBX 8 13 0 -2
BITMAP
00
00
00
00
00
00
00
00
00
10
38
10
00
ENDCHAR
STARTCHAR slash
ENCODING 47
SWIDTH 568 0
DWIDTH 8 0
BBX 8 13 0 -2
BITMAP
00
00
02
02
04
08
10
20
40
80
80
00
00
ENDCHAR
STARTCHAR zero
ENCODING 48
SWIDTH 568 0
DWIDTH 8 0
BBX 8 13 0 -2
BITMAP
00
00
18
24
42
42
42
42
42
24
18
00
00
ENDCHAR
STARTCHAR one
ENCODING 49
SWIDTH 568 0
DWIDTH 8 0
BBX 8 13 0 -2
BITMAP
00
00
10
30
50
10
10
10
10
10
7C
00
00
ENDCHAR
STARTCHAR two
ENCODING 50
SWIDTH 568 0
DWIDTH 8 0
BBX 8 13 0 -2
BITMAP
00
00
3C
42
42
02
04
18
20
40
7E
00
00
ENDCHAR
STARTCHAR three
ENCODING 51
SWIDTH 568 0
DWIDTH 8 0
BBX 8 13 0 -2
BITMAP
00
00
7E
02
04
08
1C
02
02
42
3C
00
00
ENDCHAR
STARTCHAR four
ENCODING 52
SWIDTH 568 0
DWIDTH 8 0
BBX 8 13 0 -2
BITMAP
00
00
04
0C
14
24
44
44
7E
04
04
00
00
ENDCHAR
STARTCHAR five
ENCODING 53
SWIDTH 568 0
DWIDTH 8 0
BBX 8 13 0 -2
BITMAP
00
00
7E
40
40
5C
62
02
02
42
3C
00
00
ENDCHAR
STARTCHAR six
ENCODING 54
SWIDTH 568 0
DWIDTH 8 0
BBX 8 13 0 -2
BITMAP
00
00
1C
20
40
40
5C
62
42
42
3C
00
00
ENDCHAR
STARTCHAR seven
ENCODING 55
SWIDTH 568 0
DWIDTH 8 0
BBX 8 13 0 -2
BITMAP
00
00
7E
02
04
08
08
10
10
20
20
00
00
ENDCHAR
STARTCHAR eight
ENCODING 56
SWIDTH 568 0
DWIDTH 8 0
BBX 8 13 0 -2
BITMAP
00
00
3C
42
42
42
3C
42
42
42
3C
00
00
ENDCHAR
STARTCHAR nine
ENCODING 57
SWIDTH 568 0
DWIDTH 8 0
BBX 8 13 0 -2
BITMAP
00
00
3C
42
42
46
3A
02
02
04
38
00
00
ENDCHAR
STARTCHAR colon
ENCODING 58
SWIDTH 568 0
DWIDTH 8 0
BBX 8 13 0 -2
BITMAP
00
00
00
00
10
38
10
00
00
10
38
10
00
ENDCHAR
STARTCHAR semicolon
ENCODING 59
SWIDTH 568 0
DWIDTH 8 0
BBX 8 13 0 -2
BITMAP
00
00
00
00
10
38
10
00
00
38
30
40
00
ENDCHAR
STARTCHAR less
ENCODING 60
SWIDTH 568 0
DWIDTH 8 0
BBX 8 13 0 -2
BITMAP
00
00
02
04
08
10
20
10
08
04
02
00
00
ENDCHAR
STARTCHAR equal
ENCODING 61
SWIDTH 568 0
DWIDTH 8 0
BBX 8 13 0 -2
BITMAP
00
00
00
00
00
7E
00
00
7E
00
00
00
00
ENDCHAR
STARTCHAR greater
ENCODING 62
SWIDTH 568 0
DWIDTH 8 0
BBX 8 13 0 -2
BITMAP
00
00
40
20
10
08
04
08
10
20
40
00
00
ENDCHAR
STARTCHAR question
ENCODING 63
SWIDTH 568 0
DWIDTH 8 0
BBX 8 13 0 -2
BITMAP
00
00
3C
42
42
02
04
08
08
00
08
00
00
ENDCHAR
STARTCHAR at
ENCODING 64
SWIDTH 568 0
DWIDTH 8 0
BBX 8 13 0 -2
BITMAP
00
00
3C
42
42
4E
52
56
4A
40
3C
00
00
ENDCHAR
STARTCHAR A
ENCODING 65
SWIDTH 568 0
DWIDTH 8 0
BBX 8 13 0 -2
BITMAP
00
00
18
24
42
42
42
7E
42
42
42
00
00
ENDCHAR
STARTCHAR B
ENCODING 66
SWIDTH 568 0
DWIDTH 8 0
BBX 8 13 0 -2
BITMAP
00
00
78
44
42
44
78
44
42
44
78
00
00
ENDCHAR
STARTCHAR C
ENCODING 67
SWIDTH 568 0
DWIDTH 8 0
BBX 8 13 0 -2
BITMAP
00
00
3C
42
40
40
40
40
40
42
3C
00
00
ENDCHAR
STARTCHAR D
ENCODING 68
SWIDTH 568 0
DWIDTH 8 0
BBX 8 13 0 -2
BITMAP
00
00
78
44
42
42
42
42
42
44
78
00
00
ENDCHAR
STARTCHAR E
ENCODING 69
SWIDTH 568 0
DWIDTH 8 0
BBX 8 13 0 -2
BITMAP
00
00
7E
40
40
40
78
40
40
40
7E
00
00
ENDCHAR
STARTCHAR F
ENCODING 70
SWIDTH 568 0
DWIDTH 8 0
BBX 8 13 0 -2
BITMAP
00
00
7E
40
40
40
78
40
40
40
40
00
00
ENDCHAR
STARTCHAR G
ENCODING 71
SWIDTH 568 0
DWIDTH 8 0
BBX 8 13 0 -2
BITMAP
00
00
3C
42
40
40
40
4E
42
46
3A
00
00
ENDCHAR
STARTCHAR H
ENCODING 72
SWIDTH 568 0
DWIDTH 8 0
BBX 8 13 0 -2
BITMAP
00
00
42
42
42
42
7E
42
42
42
42
00
00
ENDCHAR
STARTCHAR I
ENCODING 73
SWIDTH 568 0
DWIDTH 8 0
BBX 8 13 0 -2
BITMAP
00
00
7C
10
10
10
10
10
10
10
7C
00
00
ENDCHAR
STARTCHAR J
ENCODING 74
SWIDTH 568 0
DWIDTH 8 0
BBX 8 13 0 -2
BITMAP
00
00
1F
04
04
04
04
04
04
44
38
00
00
ENDCHAR
STARTCHAR K
ENCODING 75
SWIDTH 568 0
DWIDTH 8 0
BBX 8 13 0 -2
BITMAP
00
00
42
44
48
50
60
50
48
44
42
00
00
ENDCHAR
STARTCHAR L
ENCODING 76
SWIDTH 568 0
DWIDTH 8 0
BBX 8 13 0 -2
BITMAP
00
00
40
40
40
40
40
40
40
40
7E
00
00
ENDCHAR
STARTCHAR M
ENCODING 77
SWIDTH 568 0
DWIDTH 8 0
BBX 8 13 0 -2
BITMAP
00
00
82
82
C6
AA
92
92
82
82
82
00
00
ENDCHAR
STARTCHAR N
ENCODING 78
SWIDTH 568 0
DWIDTH 8 0
BBX 8 13 0 -2
BITMAP
00
00
42
42
62
52
4A
46
42
42
42
00
00
ENDCHAR
STARTCHAR O
ENCODING 79
SWIDTH 568 0
DWIDTH 8 0
BBX 8 13 0 -2
BITMAP
00
00
3C
42
42
42
42
42
42
42
3C
00
00
ENDCHAR
STARTCHAR P
ENCODING 80
SWIDTH 568 0
DWIDTH 8 0
BBX 8 13 0 -2
BITMAP
00
00
7C
42
42
42
7C
40
40
40
40
00
00
ENDCHAR
STARTCHAR Q
ENCODING 81
SWIDTH 568 0
DWIDTH 8 0
BBX 8 13 0 -2
BITMAP
00
00
3C
42
42
42
42
42
52
4A
3C
02
00
ENDCHAR
STARTCHAR R
ENCODING 82
SWIDTH 568 0
DWIDTH 8 0
BBX 8 13 0 -2
BITMAP
00
00
7C
42
42
42
7C
50
48
44
42
00
00
ENDCHAR
STARTCHAR S
ENCODING 83
SWIDTH 568 0
DWIDTH 8 0
BBX 8 13 0 -2
BITMAP
00
00
3C
42
40
40
3C
02
02
42
3C
00
00
ENDCHAR
STARTCHAR T
ENCODING 84
SWIDTH 568 0
DWIDTH 8 0
BBX 8 13 0 -2
BITMAP
00
00
FE
10
10
10
10
10
10
10
10
00
00
ENDCHAR
STARTCHAR U
ENCODING 85
SWIDTH 568 0
DWIDTH 8 0
BBX 8 13 0 -2
BITMAP
00
00
42
42
42
42
42
42
42
42
3C
00
00
ENDCHAR
STARTCHAR V
ENCODING 86
SWIDTH 568 0
DWIDTH 8 0
BBX 8 13 0 -2
BITMAP
00
00
82
82
44
44
44
28
28
28
10
00
00
ENDCHAR
STARTCHAR W
ENCODING 87
SWIDTH 568 0
DWIDTH 8 0
BBX 8 13 0 -2
BITMAP
00
00
82
82
82
82
92
92
92
AA
44
00
00
ENDCHAR
STARTCHAR X
ENCODING 88
SWIDTH 568 0
DWIDTH 8 0
BBX 8 13 0 -2
BITMAP
00
00
82
82
44
28
10
28
44
82
82
00
00
ENDCHAR
STARTCHAR Y
ENCODING 89
SWIDTH 568 0
DWIDTH 8 0
BBX 8 13 0 -2
BITMAP
00
00
82
82
44
28
10
10
10
10
10
00
00
ENDCHAR
STARTCHAR Z
ENCODING 90
SWIDTH 568 0
DWIDTH 8 0
BBX 8 13 0 -2
BITMAP
00
00
7E
02
04
08
10
20
40
40
7E
00
00
ENDCHAR
STARTCHAR bracketleft
ENCODING 91
SWIDTH 568 0
DWIDTH 8 0
BBX 8 13 0 -2
BITMAP
00
00
3C
20
20
20
20
20
20
20
3C
00
00
ENDCHAR
STARTCHAR backslash
ENCODING 92
SWIDTH 568 0
DWIDTH 8 0
BBX 8 13 0 -2
BITMAP
00
00
80
80
40
20
10
08
04
02
02
00
00
ENDCHAR
STARTCHAR bracketright
ENCODING 93
SWIDTH 568 0
DWIDTH 8 0
BBX 8 13 0 -2
BITMAP
00
00
78
08
08
08
08
08
08
08
78
00
00
ENDCHAR
STARTCHAR asciicircum
ENCODING 94
SWIDTH 568 0
DWIDTH 8 0
BBX 8 13 0 -2
BITMAP
00
00
10
28
44
00
00
00
00
00
00
00
00
ENDCHAR
STARTCHAR underscore
ENCODING 95
SWIDTH 568 0
DWIDTH 8 0
BBX 8 13 0 -2
BITMAP
00
00
00
00
00
00
00
00
00
00
00
FE
00
ENDCHAR
STARTCHAR grave
ENCODING 96
SWIDTH 568 0
DWIDTH 8 0
BBX 8 13 0 -2
BITMAP
00
10
08
00
00
00
00
00
00
00
00
00
00
ENDCHAR
STARTCHAR a
ENCODING 97
SWIDTH 568 0
DWIDTH 8 0
BBX 8 13 0 -2
BITMAP
00
00
00
00
00
3C
02
3E
42
46
3A
00
00
ENDCHAR
STARTCHAR b
ENCODING 98
SWIDTH 568 0
DWIDTH 8 0
BBX 8 13 0 -2
BITMAP
00
00
40
40
40
5C
62
42
42
62
5C
00
00
ENDCHAR
STARTCHAR c
ENCODING 99
SWIDTH 568 0
DWIDTH 8 0
BBX 8 13 0 -2
BITMAP
00
00
00
00
00
3C
42
40
40
42
3C
00
00
ENDCHAR
STARTCHAR d
ENCODING 100
SWIDTH 568 0
DWIDTH 8 0
BBX 8 13 0 -2
BITMAP
00
00
02
02
02
3A
46
42
42
46
3A
00
00
ENDCHAR
STARTCHAR e
ENCODING 101
SWIDTH 568 0
DWIDTH 8 0
BBX 8 13 0 -2
BITMAP
00
00
00
00
00
3C
42
7E
40
42
3C
00
00
ENDCHAR
STARTCHAR f
ENCODING 102
SWIDTH 568 0
DWIDTH 8 0
BBX 8 13 0 -2
BITMAP
00
00
1C
22
20
20
7C
20
20
20
20
00
00
ENDCHAR
STARTCHAR g
ENCODING 103
SWIDTH 568 0
DWIDTH 8 0
BBX 8 13 0 -2
BITMAP
00
00
00
00
00
3A
44
44
38
40
3C
42
3C
ENDCHAR
STARTCHAR h
ENCODING 104
SWIDTH 568 0
DWIDTH 8 0
BBX 8 13 0 -2
BITMAP
00
00
40
40
40
5C
62
42
42
42
42
00
00
ENDCHAR
STARTCHAR i
ENCODING 105
SWIDTH 568 0
DWIDTH 8 0
BBX 8 13 0 -2
BITMAP
00
00
00
10
00
30
10
10
10
10
7C
00
00
ENDCHAR
STARTCHAR j
ENCODING 106
SWIDTH 568 0
DWIDTH 8 0
BBX 8 13 0 -2
BITMAP
00
00
00
04
00
0C
04
04
04
04
44
44
38
ENDCHAR
STARTCHAR k
ENCODING 107
SWIDTH 568 0
DWIDTH 8 0
BBX 8 13 0 -2
BITMAP
00
00
40
40
40
44
48
70
48
44
42
00
00
ENDCHAR
STARTCHAR l
ENCODING 108
SWIDTH 568 0
DWIDTH 8 0
BBX 8 13 0 -2
BITMAP
00
00
30
10
10
10
10
10
10
10
7C
00
00
ENDCHAR
STARTCHAR m
ENCODING 109
SWIDTH 568 0
DWIDTH 8 0
BBX 8 13 0 -2
BITMAP
00
00
00
00
00
EC
92
92
92
92
82
00
00
ENDCHAR
STARTCHAR n
ENCODING 110
SWIDTH 568 0
DWIDTH 8 0
BBX 8 13 0 -2
BITMAP
00
00
00
00
00
5C
62
42
42
42
42
00
00
ENDCHAR
STARTCHAR o
ENCODING 111
SWIDTH 568 0
DWIDTH 8 0
BBX 8 13 0 -2
BITMAP
00
00
00
00
00
3C
42
42
42
42
3C
00
00
ENDCHAR
STARTCHAR p
ENCODING 112
SWIDTH 568 0
DWIDTH 8 0
BBX 8 13 0 -2
BITMAP
00
00
00
00
00
5C
62
42
62
5C
40
40
40
ENDCHAR
STARTCHAR q
ENCODING 113
SWIDTH 568 0
DWIDTH 8 0
BBX 8 13 0 -2
BITMAP
00
00
00
00
00
3A
46
42
46
3A
02
02
02
ENDCHAR
STARTCHAR r
ENCODING 114
SWIDTH 568 0
DWIDTH 8 0
BBX 8 13 0 -2
BITMAP
00
00
00
00
00
5C
22
20
20
20
20
00
00
ENDCHAR
STARTCHAR s
ENCODING 115
SWIDTH 568 0
DWIDTH 8 0
BBX 8 13 0 -2
BITMAP
00
00
00
00
00
3C
42
30
0C
42
3C
00
00
ENDCHAR
STARTCHAR t
ENCODING 116
SWIDTH 568 0
DWIDTH 8 0
BBX 8 13 0 -2
BITMAP
00
00
00
20
20
7C
20
20
20
22
1C
00
00
ENDCHAR
STARTCHAR u
ENCODING 117
SWIDTH 568 0
DWIDTH 8 0
BBX 8 13 0 -2
BITMAP
00
00
00
00
00
44
44
44
44
44
3A
00
00
ENDCHAR
STARTCHAR v
ENCODING 118
SWIDTH 568 0
DWIDTH 8 0
BBX 8 13 0 -2
BITMAP
00
00
00
00
00
44
44
44
28
28
10
00
00
ENDCHAR
STARTCHAR w
ENCODING 119
SWIDTH 568 0
DWIDTH 8 0
BBX 8 13 0 -2
BITMAP
00
00
00
00
00
82
82
92
92
AA
44
00
00
ENDCHAR
STARTCHAR x
ENCODING 120
SWIDTH 568 0
DWIDTH 8 0
BBX 8 13 0 -2
BITMAP
00
00
00
00
00
42
24
18
18
24
42
00
00
ENDCHAR
STARTCHAR y
ENCODING 121
SWIDTH 568 0
DWIDTH 8 0
BBX 8 13 0 -2
BITMAP
00
00
00
00
00
42
42
42
46
3A
02
42
3C
ENDCHAR
STARTCHAR z
ENCODING 122
SWIDTH 568 0
DWIDTH 8 0
BBX 8 13 0 -2
BITMAP
00
00
00
00
00
7E
04
08
10
20
7E
00
00
ENDCHAR
STARTCHAR braceleft
ENCODING 123
SWIDTH 568 0
DWIDTH 8 0
BBX 8 13 0 -2
BITMAP
00
00
0E
10
10
08
30
08
10
10
0E
00
00
ENDCHAR
STARTCHAR bar
ENCODING 124
SWIDTH 568 0
DWIDTH 8 0
BBX 8 13 0 -2
BITMAP
00
00
10
10
10
10
10
10
10
10
10
00
00
ENDCHAR
STARTCHAR braceright
ENCODING 125
SWIDTH 568 0
DWIDTH 8 0
BBX 8 13 0 -2
BITMAP
00
00
70
08
08
10
0C
10
08
08
70
00
00
ENDCHAR
STARTCHAR asciitilde
ENCODING 126
SWIDTH 568 0
DWIDTH 8 0
BBX 8 13 0 -2
BITMAP
00
00
24
54
48
00
00
00
00
00
00
00
00
ENDCHAR
STARTCHAR space
ENCODING 160
SWIDTH 568 0
DWIDTH 8 0
BBX 8 13 0 -2
BITMAP
00
00
00
00
00
00
00
00
00
00
00
00
00
ENDCHAR
STARTCHAR exclamdown
ENCODING 161
SWIDTH 568 0
DWIDTH 8 0
BBX 8 13 0 -2
BITMAP
00
00
10
00
10
10
10
10
10
10
10
00
00
ENDCHAR
STARTCHAR cent
ENCODING 162
SWIDTH 568 0
DWIDTH 8 0
BBX 8 13 0 -2
BITMAP
00
00
10
38
54
50
50
54
38
10
00
00
00
ENDCHAR
STARTCHAR sterling
ENCODING 163
SWIDTH 568 0
DWIDTH 8 0
BBX 8 13 0 -2
BITMAP
00
00
1C
22
20
70
20
20
20
62
DC
00
00
ENDCHAR
STARTCHAR currency
ENCODING 164
SWIDTH 568 0
DWIDTH 8 0
BBX 8 13 0 -2
BITMAP
00
00
00
00
42
3C
24
24
3C
42
00
00
00
ENDCHAR
STARTCHAR yen
ENCODING 165
SWIDTH 568 0
DWIDTH 8 0
BBX 8 13 0 -2
BITMAP
00
00
82
82
44
28
7C
10
7C
10
10
00
00
ENDCHAR
STARTCHAR brokenbar
ENCODING 166
SWIDTH 568 0
DWIDTH 8 0
BBX 8 13 0 -2
BITMAP
00
00
10
10
10
10
00
10
10
10
10
00
00
ENDCHAR
STARTCHAR section
ENCODING 167
SWIDTH 568 0
DWIDTH 8 0
BBX 8 13 0 -2
BITMAP
00
18
24
20
18
24
24
18
04
24
18
00
00
ENDCHAR
STARTCHAR dieresis
ENCODING 168
SWIDTH 568 0
DWIDTH 8 0
BBX 8 13 0 -2
BITMAP
00
24
24
00
00
00
00
00
00
00
00
00
00
ENDCHAR
STARTCHAR copyright
ENCODING 169
SWIDTH 568 0
DWIDTH 8 0
BBX 8 13 0 -2
BITMAP
00
38
44
92
AA
A2
AA
92
44
38
00
00
00
ENDCHAR
STARTCHAR ordfeminine
ENCODING 170
SWIDTH 568 0
DWIDTH 8 0
BBX 8 13 0 -2
BITMAP
00
00
38
04
3C
44
3C
00
7C
00
00
00
00
ENDCHAR
STARTCHAR guillemotleft
ENCODING 171
SWIDTH 568 0
DWIDTH 8 0
BBX 8 13 0 -2
BITMAP
00
00
00
12
24
48
90
48
24
12
00
00
00
ENDCHAR
STARTCHAR logicalnot
ENCODING 172
SWIDTH 568 0
DWIDTH 8 0
BBX 8 13 0 -2
BITMAP
00
00
00
00
00
00
7E
02
02
02
00
00
00
ENDCHAR
STARTCHAR hyphen
ENCODING 173
SWIDTH 568 0
DWIDTH 8 0
BBX 8 13 0 -2
BITMAP
00
00
00
00
00
00
3C
00
00
00
00
00
00
ENDCHAR
STARTCHAR registered
ENCODING 174
SWIDTH 568 0
DWIDTH 8 0
BBX 8 13 0 -2
BITMAP
00
38
44
92
AA
AA
B2
AA
44
38
00
00
00
ENDCHAR
STARTCHAR macron
ENCODING 175
SWIDTH 568 0
DWIDTH 8 0
BBX 8 13 0 -2
BITMAP
00
00
7E
00
00
00
00
00
00
00
00
00
00
ENDCHAR
STARTCHAR degree
ENCODING 176
SWIDTH 568 0
DWIDTH 8 0
BBX 8 13 0 -2
BITMAP
00
00
18
24
24
18
00
00
00
00
00
00
00
ENDCHAR
STARTCHAR plusminus
ENCODING 177
SWIDTH 568 0
DWIDTH 8 0
BBX 8 13 0 -2
BITMAP
00
00
00
10
10
7C
10
10
00
7C
00
00
00
ENDCHAR
STARTCHAR twosuperior
ENCODING 178
SWIDTH 568 0
DWIDTH 8 0
BBX 8 13 0 -2
BITMAP
00
30
48
08
30
40
78
00
00
00
00
00
00
ENDCHAR
STARTCHAR threesuperior
ENCODING 179
SWIDTH 568 0
DWIDTH 8 0
BBX 8 13 0 -2
BITMAP
00
30
48
10
08
48
30
00
00
00
00
00
00
ENDCHAR
STARTCHAR acute
ENCODING 180
SWIDTH 568 0
DWIDTH 8 0
BBX 8 13 0 -2
BITMAP
00
08
10
00
00
00
00
00
00
00
00
00
00
ENDCHAR
STARTCHAR mu
ENCODING 181
SWIDTH 568 0
DWIDTH 8 0
BBX 8 13 0 -2
BITMAP
00
00
00
00
00
42
42
42
42
66
5A
40
00
ENDCHAR
STARTCHAR paragraph
ENCODING 182
SWIDTH 568 0
DWIDTH 8 0
BBX 8 13 0 -2
BITMAP
00
00
3E
74
74
74
34
14
14
14
14
00
00
ENDCHAR
STARTCHAR periodcentered
ENCODING 183
SWIDTH 568 0
DWIDTH 8 0
BBX 8 13 0 -2
BITMAP
00
00
00
00
00
00
18
00
00
00
00
00
00
ENDCHAR
STARTCHAR cedilla
ENCODING 184
SWIDTH 568 0
DWIDTH 8 0
BBX 8 13 0 -2
BITMAP
00
00
00
00
00
00
00
00
00
00
00
08
18
ENDCHAR
STARTCHAR onesuperior
ENCODING 185
SWIDTH 568 0
DWIDTH 8 0
BBX 8 13 0 -2
BITMAP
00
20
60
20
20
20
70
00
00
00
00
00
00
ENDCHAR
STARTCHAR ordmasculine
ENCODING 186
SWIDTH 568 0
DWIDTH 8 0
BBX 8 13 0 -2
BITMAP
00
00
30
48
48
30
00
78
00
00
00
00
00
ENDCHAR
STARTCHAR guillemotright
ENCODING 187
SWIDTH 568 0
DWIDTH 8 0
BBX 8 13 0 -2
BITMAP
00
00
00
90
48
24
12
24
48
90
00
00
00
ENDCHAR
STARTCHAR onequarter
ENCODING 188
SWIDTH 568 0
DWIDTH 8 0
BBX 8 13 0 -2
BITMAP
00
40
C0
40
40
42
E6
0A
12
1A
06
00
00
ENDCHAR
STARTCHAR onehalf
ENCODING 189
SWIDTH 568 0
DWIDTH 8 0
BBX 8 13 0 -2
BITMAP
00
40
C0
40
40
4C
F2
02
0C
10
1E
00
00
ENDCHAR
STARTCHAR threequarters
ENCODING 190
SWIDTH 568 0
DWIDTH 8 0
BBX 8 13 0 -2
BITMAP
00
60
90
20
10
92
66
0A
12
1A
06
00
00
ENDCHAR
STARTCHAR questiondown
ENCODING 191
SWIDTH 568 0
DWIDTH 8 0
BBX 8 13 0 -2
BITMAP
00
00
10
00
10
10
20
40
42
42
3C
00
00
ENDCHAR
STARTCHAR Agrave
ENCODING 192
SWIDTH 568 0
DWIDTH 8 0
BBX 8 13 0 -2
BITMAP
00
10
08
00
18
24
42
42
7E
42
42
00
00
ENDCHAR
STARTCHAR Aacute
ENCODING 193
SWIDTH 568 0
DWIDTH 8 0
BBX 8 13 0 -2
BITMAP
00
08
10
00
18
24
42
42
7E
42
42
00
00
ENDCHAR
STARTCHAR Acircumflex
ENCODING 194
SWIDTH 568 0
DWIDTH 8 0
BBX 8 13 0 -2
BITMAP
00
18
24
00
18
24
42
42
7E
42
42
00
00
ENDCHAR
STARTCHAR Atilde
ENCODING 195
SWIDTH 568 0
DWIDTH 8 0
BBX 8 13 0 -2
BITMAP
00
32
4C
00
18
24
42
42
7E
42
42
00
00
ENDCHAR
STARTCHAR Adieresis
ENCODING 196
SWIDTH 568 0
DWIDTH 8 0
BBX 8 13 0 -2
BITMAP
00
24
24
00
18
24
42
42
7E
42
42
00
00
ENDCHAR
STARTCHAR Aring
ENCODING 197
SWIDTH 568 0
DWIDTH 8 0
BBX 8 13 0 -2
BITMAP
00
18
24
18
18
24
42
42
7E
42
42
00
00
ENDCHAR
STARTCHAR AE
ENCODING 198
SWIDTH 568 0
DWIDTH 8 0
BBX 8 13 0 -2
BITMAP
00
00
6E
90
90
90
9C
F0
90
90
9E
00
00
ENDCHAR
STARTCHAR Ccedilla
ENCODING 199
SWIDTH 568 0
DWIDTH 8 0
BBX 8 13 0 -2
BITMAP
00
00
3C
42
40
40
40
40
40
42
3C
08
10
ENDCHAR
STARTCHAR Egrave
ENCODING 200
SWIDTH 568 0
DWIDTH 8 0
BBX 8 13 0 -2
BITMAP
00
10
08
00
7E
40
40
78
40
40
7E
00
00
ENDCHAR
STARTCHAR Eacute
ENCODING 201
SWIDTH 568 0
DWIDTH 8 0
BBX 8 13 0 -2
BITMAP
00
08
10
00
7E
40
40
78
40
40
7E
00
00
ENDCHAR
STARTCHAR Ecircumflex
ENCODING 202
SWIDTH 568 0
DWIDTH 8 0
BBX 8 13 0 -2
BITMAP
00
18
24
00
7E
40
40
78
40
40
7E
00
00
ENDCHAR
STARTCHAR Edieresis
ENCODING 203
SWIDTH 568 0
DWIDTH 8 0
BBX 8 13 0 -2
BITMAP
00
24
24
00
7E
40
40
78
40
40
7E
00
00
ENDCHAR
STARTCHAR Igrave
ENCODING 204
SWIDTH 568 0
DWIDTH 8 0
BBX 8 13 0 -2
BITMAP
00
20
10
00
7C
10
10
10
10
10
7C
00
00
ENDCHAR
STARTCHAR Iacute
ENCODING 205
SWIDTH 568 0
DWIDTH 8 0
BBX 8 13 0 -2
BITMAP
00
08
10
00
7C
10
10
10
10
10
7C
00
00
ENDCHAR
STARTCHAR Icircumflex
ENCODING 206
SWIDTH 568 0
DWIDTH 8 0
BBX 8 13 0 -2
BITMAP
00
18
24
00
7C
10
10
10
10
10
7C
00
00
ENDCHAR
STARTCHAR Idieresis
ENCODING 207
SWIDTH 568 0
DWIDTH 8 0
BBX 8 13 0 -2
BITMAP
00
44
44
00
7C
10
10
10
10
10
7C
00
00
ENDCHAR
STARTCHAR Eth
ENCODING 208
SWIDTH 568 0
DWIDTH 8 0
BBX 8 13 0 -2
BITMAP
00
00
78
44
42
42
E2
42
42
44
78
00
00
ENDCHAR
STARTCHAR Ntilde
ENCODING 209
SWIDTH 568 0
DWIDTH 8 0
BBX 8 13 0 -2
BITMAP
00
64
98
00
82
C2
A2
92
8A
86
82
00
00
ENDCHAR
STARTCHAR Ograve
ENCODING 210
SWIDTH 568 0
DWIDTH 8 0
BBX 8 13 0 -2
BITMAP
00
20
10
00
7C
82
82
82
82
82
7C
00
00
ENDCHAR
STARTCHAR Oacute
ENCODING 211
SWIDTH 568 0
DWIDTH 8 0
BBX 8 13 0 -2
BITMAP
00
08
10
00
7C
82
82
82
82
82
7C
00
00
ENDCHAR
STARTCHAR Ocircumflex
ENCODING 212
SWIDTH 568 0
DWIDTH 8 0
BBX 8 13 0 -2
BITMAP
00
18
24
00
7C
82
82
82
82
82
7C
00
00
ENDCHAR
STARTCHAR Otilde
ENCODING 213
SWIDTH 568 0
DWIDTH 8 0
BBX 8 13 0 -2
BITMAP
00
64
98
00
7C
82
82
82
82
82
7C
00
00
ENDCHAR
STARTCHAR Odieresis
ENCODING 214
SWIDTH 568 0
DWIDTH 8 0
BBX 8 13 0 -2
BITMAP
00
44
44
00
7C
82
82
82
82
82
7C
00
00
ENDCHAR
STARTCHAR multiply
ENCODING 215
SWIDTH 568 0
DWIDTH 8 0
BBX 8 13 0 -2
BITMAP
00
00
00
00
42
24
18
18
24
42
00
00
00
ENDCHAR
STARTCHAR Oslash
ENCODING 216
SWIDTH 568 0
DWIDTH 8 0
BBX 8 13 0 -2
BITMAP
00
02
3C
46
4A
4A
52
52
52
62
3C
40
00
ENDCHAR
STARTCHAR Ugrave
ENCODING 217
SWIDTH 568 0
DWIDTH 8 0
BBX 8 13 0 -2
BITMAP
00
20
10
00
42
42
42
42
42
42
3C
00
00
ENDCHAR
STARTCHAR Uacute
ENCODING 218
SWIDTH 568 0
DWIDTH 8 0
BBX 8 13 0 -2
BITMAP
00
08
10
00
42
42
42
42
42
42
3C
00
00
ENDCHAR
STARTCHAR Ucircumflex
ENCODING 219
SWIDTH 568 0
DWIDTH 8 0
BBX 8 13 0 -2
BITMAP
00
18
24
00
42
42
42
42
42
42
3C
00
00
ENDCHAR
STARTCHAR Udieresis
ENCODING 220
SWIDTH 568 0
DWIDTH 8 0
BBX 8 13 0 -2
BITMAP
00
24
24
00
42
42
42
42
42
42
3C
00
00
ENDCHAR
STARTCHAR Yacute
ENCODING 221
SWIDTH 568 0
DWIDTH 8 0
BBX 8 13 0 -2
BITMAP
00
08
10
00
44
44
28
10
10
10
10
00
00
ENDCHAR
STARTCHAR Thorn
ENCODING 222
SWIDTH 568 0
DWIDTH 8 0
BBX 8 13 0 -2
BITMAP
00
00
40
7C
42
42
42
7C
40
40
40
00
00
ENDCHAR
STARTCHAR germandbls
ENCODING 223
SWIDTH 568 0
DWIDTH 8 0
BBX 8 13 0 -2
BITMAP
00
00
38
44
44
48
50
4C
42
42
5C
00
00
ENDCHAR
STARTCHAR agrave
ENCODING 224
SWIDTH 568 0
DWIDTH 8 0
BBX 8 13 0 -2
BITMAP
00
00
10
08
00
3C
02
3E
42
46
3A
00
00
ENDCHAR
STARTCHAR aacute
ENCODING 225
SWIDTH 568 0
DWIDTH 8 0
BBX 8 13 0 -2
BITMAP
00
00
04
08
00
3C
02
3E
42
46
3A
00
00
ENDCHAR
STARTCHAR acircumflex
ENCODING 226
SWIDTH 568 0
DWIDTH 8 0
BBX 8 13 0 -2
BITMAP
00
00
18
24
00
3C
02
3E
42
46
3A
00
00
ENDCHAR
STARTCHAR atilde
ENCODING 227
SWIDTH 568 0
DWIDTH 8 0
BBX 8 13 0 -2
BITMAP
00
00
32
4C
00
3C
02
3E
42
46
3A
00
00
ENDCHAR
STARTCHAR adieresis
ENCODING 228
SWIDTH 568 0
DWIDTH 8 0
BBX 8 13 0 -2
BITMAP
00
00
24
24
00
3C
02
3E
42
46
3A
00
00
ENDCHAR
STARTCHAR aring
ENCODING 229
SWIDTH 568 0
DWIDTH 8 0
BBX 8 13 0 -2
BITMAP
00
18
24
18
00
3C
02
3E
42
46
3A
00
00
ENDCHAR
STARTCHAR ae
ENCODING 230
SWIDTH 568 0
DWIDTH 8 0
BBX 8 13 0 -2
BITMAP
00
00
00
00
00
6C
12
7C
90
92
6C
00
00
ENDCHAR
STARTCHAR ccedilla
ENCODING 231
SWIDTH 568 0
DWIDTH 8 0
BBX 8 13 0 -2
BITMAP
00
00
00
00
00
3C
42
40
40
42
3C
08
10
ENDCHAR
STARTCHAR egrave
ENCODING 232
SWIDTH 568 0
DWIDTH 8 0
BBX 8 13 0 -2
BITMAP
00
00
10
08
00
3C
42
7E
40
42
3C
00
00
ENDCHAR
STARTCHAR eacute
ENCODING 233
SWIDTH 568 0
DWIDTH 8 0
BBX 8 13 0 -2
BITMAP
00
00
08
10
00
3C
42
7E
40
42
3C
00
00
ENDCHAR
STARTCHAR ecircumflex
ENCODING 234
SWIDTH 568 0
DWIDTH 8 0
BBX 8 13 0 -2
BITMAP
00
00
18
24
00
3C
42
7E
40
42
3C
00
00
ENDCHAR
STARTCHAR edieresis
ENCODING 235
SWIDTH 568 0
DWIDTH 8 0
BBX 8 13 0 -2
BITMAP
00
00
24
24
00
3C
42
7E
40
42
3C
00
00
ENDCHAR
STARTCHAR igrave
ENCODING 236
SWIDTH 568 0
DWIDTH 8 0
BBX 8 13 0 -2
BITMAP
00
00
20
10
00
30
10
10
10
10
7C
00
00
ENDCHAR
STARTCHAR iacute
ENCODING 237
SWIDTH 568 0
DWIDTH 8 0
BBX 8 13 0 -2
BITMAP
00
00
10
20
00
30
10
10
10
10
7C
00
00
ENDCHAR
STARTCHAR icircumflex
ENCODING 238
SWIDTH 568 0
DWIDTH 8 0
BBX 8 13 0 -2
BITMAP
00
00
30
48
00
30
10
10
10
10
7C
00
00
ENDCHAR
STARTCHAR idieresis
ENCODING 239
SWIDTH 568 0
DWIDTH 8 0
BBX 8 13 0 -2
BITMAP
00
00
48
48
00
30
10
10
10
10
7C
00
00
ENDCHAR
STARTCHAR eth
ENCODING 240
SWIDTH 568 0
DWIDTH 8 0
BBX 8 13 0 -2
BITMAP
00
24
18
28
04
3C
42
42
42
42
3C
00
00
ENDCHAR
STARTCHAR ntilde
ENCODING 241
SWIDTH 568 0
DWIDTH 8 0
BBX 8 13 0 -2
BITMAP
00
00
32
4C
00
5C
62
42
42
42
42
00
00
ENDCHAR
STARTCHAR ograve
ENCODING 242
SWIDTH 568 0
DWIDTH 8 0
BBX 8 13 0 -2
BITMAP
00
00
20
10
00
3C
42
42
42
42
3C
00
00
ENDCHAR
STARTCHAR oacute
ENCODING 243
SWIDTH 568 0
DWIDTH 8 0
BBX 8 13 0 -2
BITMAP
00
00
08
10
00
3C
42
42
42
42
3C
00
00
ENDCHAR
STARTCHAR ocircumflex
ENCODING 244
SWIDTH 568 0
DWIDTH 8 0
BBX 8 13 0 -2
BITMAP
00
00
18
24
00
3C
42
42
42
42
3C
00
00
ENDCHAR
STARTCHAR otilde
ENCODING 245
SWIDTH 568 0
DWIDTH 8 0
BBX 8 13 0 -2
BITMAP
00
00
32
4C
00
3C
42
42
42
42
3C
00
00
ENDCHAR
STARTCHAR odieresis
ENCODING 246
SWIDTH 568 0
DWIDTH 8 0
BBX 8 13 0 -2
BITMAP
00
00
24
24
00
3C
42
42
42
42
3C
00
00
ENDCHAR
STARTCHAR divide
ENCODING 247
SWIDTH 568 0
DWIDTH 8 0
BBX 8 13 0 -2
BITMAP
00
00
00
10
10
00
7C
00
10
10
00
00
00
ENDCHAR
STARTCHAR oslash
ENCODING 248
SWIDTH 568 0
DWIDTH 8 0
BBX 8 13 0 -2
BITMAP
00
00
00
00
02
3C
46
4A
52
62
3C
40
00
ENDCHAR
STARTCHAR ugrave
ENCODING 249
SWIDTH 568 0
DWIDTH 8 0
BBX 8 13 0 -2
BITMAP
00
00
20
10
00
44
44
44
44
44
3A
00
00
ENDCHAR
STARTCHAR uacute
ENCODING 250
SWIDTH 568 0
DWIDTH 8 0
BBX 8 13 0 -2
BITMAP
00
00
08
10
00
44
44
44
44
44
3A
00
00
ENDCHAR
STARTCHAR ucircumflex
ENCODING 251
SWIDTH 568 0
DWIDTH 8 0
BBX 8 13 0 -2
BITMAP
00
00
18
24
00
44
44
44
44
44
3A
00
00
ENDCHAR
STARTCHAR udieresis
ENCODING 252
SWIDTH 568 0
DWIDTH 8 0
BBX 8 13 0 -2
BITMAP
00
00
28
28
00
44
44
44
44
44
3A
00
00
ENDCHAR
STARTCHAR yacute
ENCODING 253
SWIDTH 568 0
DWIDTH 8 0
BBX 8 13 0 -2
BITMAP
00
00
08
10
00
42
42
42
46
3A
02
42
3C
ENDCHAR
STARTCHAR thorn
ENCODING 254
SWIDTH 568 0
DWIDTH 8 0
BBX 8 13 0 -2
BITMAP
00
00
00
40
40
5C
62
42
42
62
5C
40
40
ENDCHAR
STARTCHAR ydieresis
ENCODING 255
SWIDTH 568 0
DWIDTH 8 0
BBX 8 13 0 -2
BITMAP
00
00
24
24
00
42
42
42
46
3A
02
42
3C
ENDCHAR
STARTCHAR Amacron
ENCODING 256
SWIDTH 568 0
DWIDTH 8 0
BBX 8 13 0 -2
BITMAP
00
7E
00
18
24
42
42
7E
42
42
42
00
00
ENDCHAR
STARTCHAR amacron
ENCODING 257
SWIDTH 568 0
DWIDTH 8 0
BBX 8 13 0 -2
BITMAP
00
00
00
7E
00
3C
02
3E
42
46
3A
00
00
ENDCHAR
STARTCHAR Abreve
ENCODING 258
SWIDTH 568 0
DWIDTH 8 0
BBX 8 13 0 -2
BITMAP
00
42
3C
00
18
24
42
42
7E
42
42
00
00
ENDCHAR
STARTCHAR abreve
ENCODING 259
SWIDTH 568 0
DWIDTH 8 0
BBX 8 13 0 -2
BITMAP
00
00
42
3C
00
3C
02
3E
42
46
3A
00
00
ENDCHAR
STARTCHAR Aogonek
ENCODING 260
SWIDTH 568 0
DWIDTH 8 0
BBX 8 13 0 -2
BITMAP
00
00
18
24
42
42
42
7E
42
42
42
04
03
ENDCHAR
STARTCHAR aogonek
ENCODING 261
SWIDTH 568 0
DWIDTH 8 0
BBX 8 13 0 -2
BITMAP
00
00
00
00
00
3C
02
3E
42
46
3A
04
03
ENDCHAR
STARTCHAR Cacute
ENCODING 262
SWIDTH 568 0
DWIDTH 8 0
BBX 8 13 0 -2
BITMAP
00
08
10
00
3C
42
40
40
40
42
3C
00
00
ENDCHAR
STARTCHAR cacute
ENCODING 263
SWIDTH 568 0
DWIDTH 8 0
BBX 8 13 0 -2
BITMAP
00
00
08
10
00
3C
42
40
40
42
3C
00
00
ENDCHAR
STARTCHAR Ccircumflex
ENCODING 264
SWIDTH 568 0
DWIDTH 8 0
BBX 8 13 0 -2
BITMAP
00
18
24
00
3C
42
40
40
40
42
3C
00
00
ENDCHAR
STARTCHAR ccircumflex
ENCODING 265
SWIDTH 568 0
DWIDTH 8 0
BBX 8 13 0 -2
BITMAP
00
00
18
24
00
3C
42
40
40
42
3C
00
00
ENDCHAR
STARTCHAR Cdotaccent
ENCODING 266
SWIDTH 568 0
DWIDTH 8 0
BBX 8 13 0 -2
BITMAP
00
18
00
3C
42
40
40
40
40
42
3C
00
00
ENDCHAR
STARTCHAR cdotaccent
ENCODING 267
SWIDTH 568 0
DWIDTH 8 0
BBX 8 13 0 -2
BITMAP
00
00
00
18
00
3C
42
40
40
42
3C
00
00
ENDCHAR
STARTCHAR Ccaron
ENCODING 268
SWIDTH 568 0
DWIDTH 8 0
BBX 8 13 0 -2
BITMAP
00
24
18
00
3C
42
40
40
40
42
3C
00
00
ENDCHAR
STARTCHAR ccaron
ENCODING 269
SWIDTH 568 0
DWIDTH 8 0
BBX 8 13 0 -2
BITMAP
00
00
24
18
00
3C
42
40
40
42
3C
00
00
ENDCHAR
STARTCHAR Dcaron
ENCODING 270
SWIDTH 568 0
DWIDTH 8 0
BBX 8 13 0 -2
BITMAP
00
24
18
00
78
44
42
42
42
44
78
00
00
ENDCHAR
STARTCHAR dcaron
ENCODING 271
SWIDTH 568 0
DWIDTH 8 0
BBX 8 13 0 -2
BITMAP
00
24
18
02
02
3A
46
42
42
46
3A
00
00
ENDCHAR
STARTCHAR Dcroat
ENCODING 272
SWIDTH 568 0
DWIDTH 8 0
BBX 8 13 0 -2
BITMAP
00
00
78
44
42
42
F2
42
42
44
78
00
00
ENDCHAR
STARTCHAR dcroat
ENCODING 273
SWIDTH 568 0
DWIDTH 8 0
BBX 8 13 0 -2
BITMAP
00
00
04
1E
04
74
8C
84
84
8C
74
00
00
ENDCHAR
STARTCHAR Emacron
ENCODING 274
SWIDTH 568 0
DWIDTH 8 0
BBX 8 13 0 -2
BITMAP
00
7E
00
7E
40
40
78
40
40
40
7E
00
00
ENDCHAR
STARTCHAR emacron
ENCODING 275
SWIDTH 568 0
DWIDTH 8 0
BBX 8 13 0 -2
BITMAP
00
00
00
7E
00
3C
42
7E
40
42
3C
00
00
ENDCHAR
STARTCHAR Ebreve
ENCODING 276
SWIDTH 568 0
DWIDTH 8 0
BBX 8 13 0 -2
BITMAP
00
42
3C
00
7E
40
40
78
40
40
7E
00
00
ENDCHAR
STARTCHAR ebreve
ENCODING 277
SWIDTH 568 0
DWIDTH 8 0
BBX 8 13 0 -2
BITMAP
00
00
42
3C
00
3C
42
7E
40
42
3C
00
00
ENDCHAR
STARTCHAR Edotaccent
ENCODING 278
SWIDTH 568 0
DWIDTH 8 0
BBX 8 13 0 -2
BITMAP
00
18
00
7E
40
40
78
40
40
40
7E
00
00
ENDCHAR
STARTCHAR edotaccent
ENCODING 279
SWIDTH 568 0
DWIDTH 8 0
BBX 8 13 0 -2
BITMAP
00
00
00
18
00
3C
42
7E
40
42
3C
00
00
ENDCHAR
STARTCHAR Eogonek
ENCODING 280
SWIDTH 568 0
DWIDTH 8 0
BBX 8 13 0 -2
BITMAP
00
00
7E
40
40
40
78
40
40
40
7E
10
1C
ENDCHAR
STARTCHAR eogonek
ENCODING 281
SWIDTH 568 0
DWIDTH 8 0
BBX 8 13 0 -2
BITMAP
00
00
00
00
00
3C
42
7E
40
42
3C
10
1C
ENDCHAR
STARTCHAR Ecaron
ENCODING 282
SWIDTH 568 0
DWIDTH 8 0
BBX 8 13 0 -2
BITMAP
00
24
18
00
7E
40
40
78
40
40
7E
00
00
ENDCHAR
STARTCHAR ecaron
ENCODING 283
SWIDTH 568 0
DWIDTH 8 0
BBX 8 13 0 -2
BITMAP
00
00
24
18
00
3C
42
7E
40
42
3C
00
00
ENDCHAR
STARTCHAR Gcircumflex
ENCODING 284
SWIDTH 568 0
DWIDTH 8 0
BBX 8 13 0 -2
BITMAP
00
18
24
00
3C
42
40
4E
42
46
3A
00
00
ENDCHAR
STARTCHAR gcircumflex
ENCODING 285
SWIDTH 568 0
DWIDTH 8 0
BBX 8 13 0 -2
BITMAP
00
00
18
24
00
3A
44
44
38
40
3C
42
3C
ENDCHAR
STARTCHAR Gbreve
ENCODING 286
SWIDTH 568 0
DWIDTH 8 0
BBX 8 13 0 -2
BITMAP
00
42
3C
00
3C
42
40
4E
42
46
3A
00
00
ENDCHAR
STARTCHAR gbreve
ENCODING 287
SWIDTH 568 0
DWIDTH 8 0
BBX 8 13 0 -2
BITMAP
00
00
42
3C
00
3A
44
44
38
40
3C
42
3C
ENDCHAR
STARTCHAR Gdotaccent
ENCODING 288
SWIDTH 568 0
DWIDTH 8 0
BBX 8 13 0 -2
BITMAP
00
18
00
3C
42
40
40
4E
42
46
3A
00
00
ENDCHAR
STARTCHAR gdotaccent
ENCODING 289
SWIDTH 568 0
DWIDTH 8 0
BBX 8 13 0 -2
BITMAP
00
00
00
18
00
3A
44
44
38
40
3C
42
3C
ENDCHAR
STARTCHAR Gcommaaccent
ENCODING 290
SWIDTH 568 0
DWIDTH 8 0
BBX 8 13 0 -2
BITMAP
00
00
3C
42
40
40
40
4E
42
46
3A
08
10
ENDCHAR
STARTCHAR gcommaaccent
ENCODING 291
SWIDTH 568 0
DWIDTH 8 0
BBX 8 13 0 -2
BITMAP
00
08
10
18
00
3A
44
44
38
40
3C
42
3C
ENDCHAR
STARTCHAR Hcircumflex
ENCODING 292
SWIDTH 568 0
DWIDTH 8 0
BBX 8 13 0 -2
BITMAP
00
18
24
00
42
42
42
7E
42
42
42
00
00
ENDCHAR
STARTCHAR hcircumflex
ENCODING 293
SWIDTH 568 0
DWIDTH 8 0
BBX 8 13 0 -2
BITMAP
00
0C
12
40
40
40
5C
62
42
42
42
00
00
ENDCHAR
STARTCHAR Hbar
ENCODING 294
SWIDTH 568 0
DWIDTH 8 0
BBX 8 13 0 -2
BITMAP
00
00
42
42
FF
42
7E
42
42
42
42
00
00
ENDCHAR
STARTCHAR hbar
ENCODING 295
SWIDTH 568 0
DWIDTH 8 0
BBX 8 13 0 -2
BITMAP
00
00
40
F8
40
5C
62
42
42
42
42
00
00
ENDCHAR
STARTCHAR Itilde
ENCODING 296
SWIDTH 568 0
DWIDTH 8 0
BBX 8 13 0 -2
BITMAP
00
64
98
00
7C
10
10
10
10
10
7C
00
00
ENDCHAR
STARTCHAR itilde
ENCODING 297
SWIDTH 568 0
DWIDTH 8 0
BBX 8 13 0 -2
BITMAP
00
00
64
98
00
30
10
10
10
10
7C
00
00
ENDCHAR
STARTCHAR Imacron
ENCODING 298
SWIDTH 568 0
DWIDTH 8 0
BBX 8 13 0 -2
BITMAP
00
7C
00
7C
10
10
10
10
10
10
7C
00
00
ENDCHAR
STARTCHAR imacron
ENCODING 299
SWIDTH 568 0
DWIDTH 8 0
BBX 8 13 0 -2
BITMAP
00
00
00
7C
00
30
10
10
10
10
7C
00
00
ENDCHAR
STARTCHAR Ibreve
ENCODING 300
SWIDTH 568 0
DWIDTH 8 0
BBX 8 13 0 -2
BITMAP
00
44
38
00
7C
10
10
10
10
10
7C
00
00
ENDCHAR
STARTCHAR ibreve
ENCODING 301
SWIDTH 568 0
DWIDTH 8 0
BBX 8 13 0 -2
BITMAP
00
00
44
38
00
30
10
10
10
10
7C
00
00
ENDCHAR
STARTCHAR Iogonek
ENCODING 302
SWIDTH 568 0
DWIDTH 8 0
BBX 8 13 0 -2
BITMAP
00
00
7C
10
10
10
10
10
10
10
7C
10
18
ENDCHAR
STARTCHAR iogonek
ENCODING 303
SWIDTH 568 0
DWIDTH 8 0
BBX 8 13 0 -2
BITMAP
00
00
00
30
00
30
10
10
10
10
7C
10
18
ENDCHAR
STARTCHAR Idotaccent
ENCODING 304
SWIDTH 568 0
DWIDTH 8 0
BBX 8 13 0 -2
BITMAP
00
10
00
7C
10
10
10
10
10
10
7C
00
00
ENDCHAR
STARTCHAR dotlessi
ENCODING 305
SWIDTH 568 0
DWIDTH 8 0
BBX 8 13 0 -2
BITMAP
00
00
00
00
00
30
10
10
10
10
7C
00
00
ENDCHAR
STARTCHAR IJ
ENCODING 306
SWIDTH 568 0
DWIDTH 8 0
BBX 8 13 0 -2
BITMAP
00
00
EE
42
42
42
42
42
42
52
EC
00
00
ENDCHAR
STARTCHAR ij
ENCODING 307
SWIDTH 568 0
DWIDTH 8 0
BBX 8 13 0 -2
BITMAP
00
00
00
42
00
C6
42
42
42
42
F2
12
0C
ENDCHAR
STARTCHAR Jcircumflex
ENCODING 308
SWIDTH 568 0
DWIDTH 8 0
BBX 8 13 0 -2
BITMAP
00
0C
12
00
1E
04
04
04
04
44
38
00
00
ENDCHAR
STARTCHAR jcircumflex
ENCODING 309
SWIDTH 568 0
DWIDTH 8 0
BBX 8 13 0 -2
BITMAP
00
00
0C
12
00
0C
04
04
04
04
44
44
38
ENDCHAR
STARTCHAR Kcommaaccent
ENCODING 310
SWIDTH 568 0
DWIDTH 8 0
BBX 8 13 0 -2
BITMAP
00
00
42
44
48
50
60
50
48
44
42
20
C0
ENDCHAR
STARTCHAR kcommaaccent
ENCODING 311
SWIDTH 568 0
DWIDTH 8 0
BBX 8 13 0 -2
BITMAP
00
00
40
40
40
44
48
70
48
44
42
20
C0
ENDCHAR
STARTCHAR kgreenlandic
ENCODING 312
SWIDTH 568 0
DWIDTH 8 0
BBX 8 13 0 -2
BITMAP
00
00
00
00
00
42
44
78
44
42
42
00
00
ENDCHAR
STARTCHAR Lacute
ENCODING 313
SWIDTH 568 0
DWIDTH 8 0
BBX 8 13 0 -2
BITMAP
00
08
10
40
40
40
40
40
40
40
7E
00
00
ENDCHAR
STARTCHAR lacute
ENCODING 314
SWIDTH 568 0
DWIDTH 8 0
BBX 8 13 0 -2
BITMAP
08
10
00
30
10
10
10
10
10
10
7C
00
00
ENDCHAR
STARTCHAR Lcommaaccent
ENCODING 315
SWIDTH 568 0
DWIDTH 8 0
BBX 8 13 0 -2
BITMAP
00
00
40
40
40
40
40
40
40
40
7E
08
10
ENDCHAR
STARTCHAR lcommaaccent
ENCODING 316
SWIDTH 568 0
DWIDTH 8 0
BBX 8 13 0 -2
BITMAP
00
00
30
10
10
10
10
10
10
10
7C
10
20
ENDCHAR
STARTCHAR Lcaron
ENCODING 317
SWIDTH 568 0
DWIDTH 8 0
BBX 8 13 0 -2
BITMAP
48
30
00
40
40
40
40
40
40
40
7E
00
00
ENDCHAR
STARTCHAR lcaron
ENCODING 318
SWIDTH 568 0
DWIDTH 8 0
BBX 8 13 0 -2
BITMAP
48
30
00
30
10
10
10
10
10
10
7C
00
00
ENDCHAR
STARTCHAR Ldot
ENCODING 319
SWIDTH 568 0
DWIDTH 8 0
BBX 8 13 0 -2
BITMAP
00
00
40
40
40
48
48
40
40
40
7E
00
00
ENDCHAR
STARTCHAR ldot
ENCODING 320
SWIDTH 568 0
DWIDTH 8 0
BBX 8 13 0 -2
BITMAP
00
00
30
10
10
12
12
10
10
10
7C
00
00
ENDCHAR
STARTCHAR Lslash
ENCODING 321
SWIDTH 568 0
DWIDTH 8 0
BBX 8 13 0 -2
BITMAP
00
00
40
40
40
60
C0
40
40
40
7E
00
00
ENDCHAR
STARTCHAR lslash
ENCODING 322
SWIDTH 568 0
DWIDTH 8 0
BBX 8 13 0 -2
BITMAP
00
00
30
10
10
18
30
10
10
10
7C
00
00
ENDCHAR
STARTCHAR Nacute
ENCODING 323
SWIDTH 568 0
DWIDTH 8 0
BBX 8 13 0 -2
BITMAP
00
08
10
42
42
62
52
4A
46
42
42
00
00
ENDCHAR
STARTCHAR nacute
ENCODING 324
SWIDTH 568 0
DWIDTH 8 0
BBX 8 13 0 -2
BITMAP
00
00
08
10
00
5C
62
42
42
42
42
00
00
ENDCHAR
STARTCHAR Ncommaaccent
ENCODING 325
SWIDTH 568 0
DWIDTH 8 0
BBX 8 13 0 -2
BITMAP
00
00
42
42
62
52
4A
46
42
42
42
20
40
ENDCHAR
STARTCHAR ncommaaccent
ENCODING 326
SWIDTH 568 0
DWIDTH 8 0
BBX 8 13 0 -2
BITMAP
00
00
00
00
00
5C
62
42
42
42
42
20
40
ENDCHAR
STARTCHAR Ncaron
ENCODING 327
SWIDTH 568 0
DWIDTH 8 0
BBX 8 13 0 -2
BITMAP
00
24
18
42
42
62
52
4A
46
42
42
00
00
ENDCHAR
STARTCHAR ncaron
ENCODING 328
SWIDTH 568 0
DWIDTH 8 0
BBX 8 13 0 -2
BITMAP
00
00
24
18
00
5C
62
42
42
42
42
00
00
ENDCHAR
STARTCHAR napostrophe
ENCODING 329
SWIDTH 568 0
DWIDTH 8 0
BBX 8 13 0 -2
BITMAP
00
C0
40
80
00
5C
62
42
42
42
42
00
00
ENDCHAR
STARTCHAR Eng
ENCODING 330
SWIDTH 568 0
DWIDTH 8 0
BBX 8 13 0 -2
BITMAP
00
00
42
42
62
52
4A
46
42
42
42
02
0C
ENDCHAR
STARTCHAR eng
ENCODING 331
SWIDTH 568 0
DWIDTH 8 0
BBX 8 13 0 -2
BITMAP
00
00
00
00
00
5C
62
42
42
42
42
02
0C
ENDCHAR
STARTCHAR Omacron
ENCODING 332
SWIDTH 568 0
DWIDTH 8 0
BBX 8 13 0 -2
BITMAP
00
00
7C
00
7C
82
82
82
82
82
7C
00
00
ENDCHAR
STARTCHAR omacron
ENCODING 333
SWIDTH 568 0
DWIDTH 8 0
BBX 8 13 0 -2
BITMAP
00
00
00
7E
00
3C
42
42
42
42
3C
00
00
ENDCHAR
STARTCHAR Obreve
ENCODING 334
SWIDTH 568 0
DWIDTH 8 0
BBX 8 13 0 -2
BITMAP
00
44
38
00
7C
82
82
82
82
82
7C
00
00
ENDCHAR
STARTCHAR obreve
ENCODING 335
SWIDTH 568 0
DWIDTH 8 0
BBX 8 13 0 -2
BITMAP
00
00
42
3C
00
3C
42
42
42
42
3C
00
00
ENDCHAR
STARTCHAR Ohungarumlaut
ENCODING 336
SWIDTH 568 0
DWIDTH 8 0
BBX 8 13 0 -2
BITMAP
00
24
48
00
7C
82
82
82
82
82
7C
00
00
ENDCHAR
STARTCHAR ohungarumlaut
ENCODING 337
SWIDTH 568 0
DWIDTH 8 0
BBX 8 13 0 -2
BITMAP
00
00
12
24
00
3C
42
42
42
42
3C
00
00
ENDCHAR
STARTCHAR OE
ENCODING 338
SWIDTH 568 0
DWIDTH 8 0
BBX 8 13 0 -2
BITMAP
00
00
7E
90
90
90
9C
90
90
90
7E
00
00
ENDCHAR
STARTCHAR oe
ENCODING 339
SWIDTH 568 0
DWIDTH 8 0
BBX 8 13 0 -2
BITMAP
00
00
00
00
00
6C
92
9C
90
92
6C
00
00
ENDCHAR
STARTCHAR Racute
ENCODING 340
SWIDTH 568 0
DWIDTH 8 0
BBX 8 13 0 -2
BITMAP
00
08
10
00
7C
42
42
7C
48
44
42
00
00
ENDCHAR
STARTCHAR racute
ENCODING 341
SWIDTH 568 0
DWIDTH 8 0
BBX 8 13 0 -2
BITMAP
00
00
08
10
00
5C
22
20
20
20
20
00
00
ENDCHAR
STARTCHAR Rcommaaccent
ENCODING 342
SWIDTH 568 0
DWIDTH 8 0
BBX 8 13 0 -2
BITMAP
00
00
7C
42
42
42
7C
50
48
44
42
20
40
ENDCHAR
STARTCHAR rcommaaccent
ENCODING 343
SWIDTH 568 0
DWIDTH 8 0
BBX 8 13 0 -2
BITMAP
00
00
00
00
00
5C
22
20
20
20
20
10
20
ENDCHAR
STARTCHAR Rcaron
ENCODING 344
SWIDTH 568 0
DWIDTH 8 0
BBX 8 13 0 -2
BITMAP
00
24
18
00
7C
42
42
7C
48
44
42
00
00
ENDCHAR
STARTCHAR rcaron
ENCODING 345
SWIDTH 568 0
DWIDTH 8 0
BBX 8 13 0 -2
BITMAP
00
00
24
18
00
5C
22
20
20
20
20
00
00
ENDCHAR
STARTCHAR Sacute
ENCODING 346
SWIDTH 568 0
DWIDTH 8 0
BBX 8 13 0 -2
BITMAP
00
08
10
00
3C
42
40
3C
02
42
3C
00
00
ENDCHAR
STARTCHAR sacute
ENCODING 347
SWIDTH 568 0
DWIDTH 8 0
BBX 8 13 0 -2
BITMAP
00
00
08
10
00
3C
42
30
0C
42
3C
00
00
ENDCHAR
STARTCHAR Scircumflex
ENCODING 348
SWIDTH 568 0
DWIDTH 8 0
BBX 8 13 0 -2
BITMAP
00
18
24
00
3C
42
40
3C
02
42
3C
00
00
ENDCHAR
STARTCHAR scircumflex
ENCODING 349
SWIDTH 568 0
DWIDTH 8 0
BBX 8 13 0 -2
BITMAP
00
00
18
24
00
3C
42
30
0C
42
3C
00
00
ENDCHAR
STARTCHAR Scedilla
ENCODING 350
SWIDTH 568 0
DWIDTH 8 0
BBX 8 13 0 -2
BITMAP
00
00
3C
42
40
40
3C
02
02
42
3C
08
10
ENDCHAR
STARTCHAR scedilla
ENCODING 351
SWIDTH 568 0
DWIDTH 8 0
BBX 8 13 0 -2
BITMAP
00
00
00
00
00
3C
42
30
0C
42
3C
08
10
ENDCHAR
STARTCHAR Scaron
ENCODING 352
SWIDTH 568 0
DWIDTH 8 0
BBX 8 13 0 -2
BITMAP
00
24
18
00
3C
42
40
3C
02
42
3C
00
00
ENDCHAR
STARTCHAR scaron
ENCODING 353
SWIDTH 568 0
DWIDTH 8 0
BBX 8 13 0 -2
BITMAP
00
00
24
18
00
3C
42
30
0C
42
3C
00
00
ENDCHAR
STARTCHAR Tcommaaccent
ENCODING 354
SWIDTH 568 0
DWIDTH 8 0
BBX 8 13 0 -2
BITMAP
00
00
FE
10
10
10
10
10
10
10
10
08
10
ENDCHAR
STARTCHAR tcommaaccent
ENCODING 355
SWIDTH 568 0
DWIDTH 8 0
BBX 8 13 0 -2
BITMAP
00
00
00
20
20
7C
20
20
20
22
1C
08
10
ENDCHAR
STARTCHAR Tcaron
ENCODING 356
SWIDTH 568 0
DWIDTH 8 0
BBX 8 13 0 -2
BITMAP
00
28
10
00
FE
10
10
10
10
10
10
00
00
ENDCHAR
STARTCHAR tcaron
ENCODING 357
SWIDTH 568 0
DWIDTH 8 0
BBX 8 13 0 -2
BITMAP
00
48
30
00
20
20
7C
20
20
22
1C
00
00
ENDCHAR
STARTCHAR Tbar
ENCODING 358
SWIDTH 568 0
DWIDTH 8 0
BBX 8 13 0 -2
BITMAP
00
00
FE
10
10
7C
10
10
10
10
10
00
00
ENDCHAR
STARTCHAR tbar
ENCODING 359
SWIDTH 568 0
DWIDTH 8 0
BBX 8 13 0 -2
BITMAP
00
00
00
20
7C
20
7C
20
20
22
1C
00
00
ENDCHAR
STARTCHAR Utilde
ENCODING 360
SWIDTH 568 0
DWIDTH 8 0
BBX 8 13 0 -2
BITMAP
00
32
4C
00
42
42
42
42
42
42
3C
00
00
ENDCHAR
STARTCHAR utilde
ENCODING 361
SWIDTH 568 0
DWIDTH 8 0
BBX 8 13 0 -2
BITMAP
00
00
32
4C
00
44
44
44
44
44
3A
00
00
ENDCHAR
STARTCHAR Umacron
ENCODING 362
SWIDTH 568 0
DWIDTH 8 0
BBX 8 13 0 -2
BITMAP
00
7E
00
42
42
42
42
42
42
42
3C
00
00
ENDCHAR
STARTCHAR umacron
ENCODING 363
SWIDTH 568 0
DWIDTH 8 0
BBX 8 13 0 -2
BITMAP
00
00
00
7C
00
44
44
44
44
44
3A
00
00
ENDCHAR
STARTCHAR Ubreve
ENCODING 364
SWIDTH 568 0
DWIDTH 8 0
BBX 8 13 0 -2
BITMAP
00
42
3C
00
42
42
42
42
42
42
3C
00
00
ENDCHAR
STARTCHAR ubreve
ENCODING 365
SWIDTH 568 0
DWIDTH 8 0
BBX 8 13 0 -2
BITMAP
00
00
44
38
00
44
44
44
44
44
3A
00
00
ENDCHAR
STARTCHAR Uring
ENCODING 366
SWIDTH 568 0
DWIDTH 8 0
BBX 8 13 0 -2
BITMAP
00
18
24
18
42
42
42
42
42
42
3C
00
00
ENDCHAR
STARTCHAR uring
ENCODING 367
SWIDTH 568 0
DWIDTH 8 0
BBX 8 13 0 -2
BITMAP
00
18
24
18
00
44
44
44
44
44
3A
00
00
ENDCHAR
STARTCHAR Uhungarumlaut
ENCODING 368
SWIDTH 568 0
DWIDTH 8 0
BBX 8 13 0 -2
BITMAP
00
12
24
00
42
42
42
42
42
42
3C
00
00
ENDCHAR
STARTCHAR uhungarumlaut
ENCODING 369
SWIDTH 568 0
DWIDTH 8 0
BBX 8 13 0 -2
BITMAP
00
00
12
24
00
44
44
44
44
44
3A
00
00
ENDCHAR
STARTCHAR Uogonek
ENCODING 370
SWIDTH 568 0
DWIDTH 8 0
BBX 8 13 0 -2
BITMAP
00
00
42
42
42
42
42
42
42
42
3C
08
0C
ENDCHAR
STARTCHAR uogonek
ENCODING 371
SWIDTH 568 0
DWIDTH 8 0
BBX 8 13 0 -2
BITMAP
00
00
00
00
00
44
44
44
44
44
3A
08
0C
ENDCHAR
STARTCHAR Wcircumflex
ENCODING 372
SWIDTH 568 0
DWIDTH 8 0
BBX 8 13 0 -2
BITMAP
00
10
28
00
82
82
92
92
92
AA
44
00
00
ENDCHAR
STARTCHAR wcircumflex
ENCODING 373
SWIDTH 568 0
DWIDTH 8 0
BBX 8 13 0 -2
BITMAP
00
00
10
28
00
82
82
92
92
AA
44
00
00
ENDCHAR
STARTCHAR Ycircumflex
ENCODING 374
SWIDTH 568 0
DWIDTH 8 0
BBX 8 13 0 -2
BITMAP
00
18
24
00
82
44
28
10
10
10
10
00
00
ENDCHAR
STARTCHAR ycircumflex
ENCODING 375
SWIDTH 568 0
DWIDTH 8 0
BBX 8 13 0 -2
BITMAP
00
00
18
24
00
42
42
42
46
3A
02
42
3C
ENDCHAR
STARTCHAR Ydieresis
ENCODING 376
SWIDTH 568 0
DWIDTH 8 0
BBX 8 13 0 -2
BITMAP
00
44
44
00
82
44
28
10
10
10
10
00
00
ENDCHAR
STARTCHAR Zacute
ENCODING 377
SWIDTH 568 0
DWIDTH 8 0
BBX 8 13 0 -2
BITMAP
00
08
10
00
7E
04
08
10
20
40
7E
00
00
ENDCHAR
STARTCHAR zacute
ENCODING 378
SWIDTH 568 0
DWIDTH 8 0
BBX 8 13 0 -2
BITMAP
00
00
08
10
00
7E
04
08
10
20
7E
00
00
ENDCHAR
STARTCHAR Zdotaccent
ENCODING 379
SWIDTH 568 0
DWIDTH 8 0
BBX 8 13 0 -2
BITMAP
00
18
00
7E
02
04
08
10
20
40
7E
00
00
ENDCHAR
STARTCHAR zdotaccent
ENCODING 380
SWIDTH 568 0
DWIDTH 8 0
BBX 8 13 0 -2
BITMAP
00
00
00
18
00
7E
04
08
10
20
7E
00
00
ENDCHAR
STARTCHAR Zcaron
ENCODING 381
SWIDTH 568 0
DWIDTH 8 0
BBX 8 13 0 -2
BITMAP
00
24
18
00
7E
04
08
10
20
40
7E
00
00
ENDCHAR
STARTCHAR zcaron
ENCODING 382
SWIDTH 568 0
DWIDTH 8 0
BBX 8 13 0 -2
BITMAP
00
00
24
18
00
7E
04
08
10
20
7E
00
00
ENDCHAR
STARTCHAR longs
ENCODING 383
SWIDTH 568 0
DWIDTH 8 0
BBX 8 13 0 -2
BITMAP
00
00
18
24
20
20
60
20
20
20
20
00
00
ENDCHAR
ENDFONT
